<svg xmlns="http://www.w3.org/2000/svg" xmlns:xlink="http://www.w3.org/1999/xlink" viewBox="0 0 237.36 253.52"><defs><style>.cls-1,.cls-6{fill:#ef472c;}.cls-1,.cls-10,.cls-11,.cls-14,.cls-15,.cls-18,.cls-19,.cls-2,.cls-24,.cls-25,.cls-26,.cls-27,.cls-28,.cls-31,.cls-37,.cls-39,.cls-5,.cls-8,.cls-9{stroke:#010101;}.cls-1,.cls-10,.cls-14,.cls-15,.cls-18,.cls-19,.cls-2,.cls-21,.cls-24,.cls-25,.cls-26,.cls-27,.cls-28,.cls-29,.cls-31,.cls-32,.cls-33,.cls-37,.cls-38,.cls-39,.cls-5,.cls-8,.cls-9{stroke-miterlimit:10;}.cls-12,.cls-2{fill:#fdd407;}.cls-14,.cls-2,.cls-26{stroke-width:0.98px;}.cls-14,.cls-21,.cls-28,.cls-29,.cls-3,.cls-33,.cls-5{fill:none;}.cls-4,.cls-8{fill:#f0bd21;}.cls-7{clip-path:url(#clip-path);}.cls-11,.cls-9{fill:#b7d546;}.cls-10{fill:#e22026;stroke-width:0.52px;}.cls-11{stroke-miterlimit:10;}.cls-13{clip-path:url(#clip-path-2);}.cls-15{fill:#613326;}.cls-15,.cls-18{stroke-width:0.88px;}.cls-16{clip-path:url(#clip-path-3);}.cls-17{clip-path:url(#clip-path-4);}.cls-18{fill:#b12226;}.cls-19,.cls-20{fill:#b12025;}.cls-21,.cls-38{stroke:#000;}.cls-22{fill:#967a40;}.cls-23{clip-path:url(#clip-path-5);}.cls-24{fill:#2a7c3e;}.cls-25{fill:#faad1c;}.cls-26,.cls-27,.cls-37{fill:#12a44a;}.cls-28,.cls-29,.cls-33{stroke-linecap:round;}.cls-29{stroke:#fcf8cb;}.cls-30,.cls-31,.cls-32{fill:#d82628;}.cls-31{stroke-width:0.67px;}.cls-32{stroke:#0a0808;}.cls-32,.cls-33{stroke-width:0.8px;}.cls-33{stroke:#060505;}.cls-34{clip-path:url(#clip-path-6);}.cls-35{clip-path:url(#clip-path-7);}.cls-36{clip-path:url(#clip-path-8);}.cls-37{stroke-width:0.88px;}.cls-38,.cls-40{fill:#fff;}.cls-39{fill:#050505;stroke-width:0.85px;}</style><clipPath id="clip-path"><path class="cls-1" d="M232.75,165.37a210.75,210.75,0,0,1-32.94,15.72c-1.63.64-3.27,1.26-4.9,1.86q-.41.17-.81.3c-1.7.64-3.4,1.26-5.1,1.88l-.35.12-2.17.78-1.14.4-2.28.81h0l-3.25,1.15h-.1l-1.12.4-.74.26h0l-2.19.78-1.33.48-1.76.63-3.8,1.37-3.55,1.31-1.33.49a92.37,92.37,0,0,0-9,3.93l-1.38.69c-3.39,1.72-6.81,3.63-10.24,5.68-.11.07-.23.13-.34.21-3.2,1.91-6.41,3.94-9.61,6l-.27.17c-3.12,2-6.22,4.14-9.3,6.24l-2,1.34L114,223.68c-3.11,2.13-6.17,4.21-9.16,6.18l-2.74,1.79c-1.08.7-2.15,1.38-3.2,2-2.47,1.55-4.89,3-7.23,4.29-1.47.81-2.92,1.57-4.33,2.27C70.4,248.7,30.62,252,14.05,253a8.45,8.45,0,0,1-8.85-6.92C-15.49,131,37.88,32.47,53.68,6.48A8.48,8.48,0,0,1,64.49,3.2c7.44,3.43,21.19,8.63,41.15,11.68,29.29,4.47,36.31,16.28,37.2,18,.11.22.24.44.37.65,14.64,23.91,27.23,39.9,48.31,51.9,17,9.66,37.18,52.48,44.59,69.21A8.46,8.46,0,0,1,232.75,165.37Z"/></clipPath><clipPath id="clip-path-2"><path class="cls-2" d="M103.35,4.81a13.08,13.08,0,1,1-6.63,1.8A13.09,13.09,0,0,1,103.35,4.81Z"/></clipPath><clipPath id="clip-path-3"><path class="cls-3" d="M137.71,170q-7.68,22.32-17.4,43.88a66.88,66.88,0,0,1-16.72-9.71,66.2,66.2,0,0,1-15.11,8.48q-9.7-21.53-17.39-43.89c4.23-.58,8.69-1.26,12-3.93,3.12-2.5,4.8-6.44,5.37-10.38.76-5.31-.15-10.81-.31-16.1,5.93.89,11.56.89,17.11-1.81,0,.68.07,1.36.11,2,5,1.89,10,1.79,15.24,1-.16,5.3-1.08,10.79-.31,16.1.57,4,2.25,7.88,5.36,10.38C129,168.73,133.47,169.41,137.71,170Z"/></clipPath><clipPath id="clip-path-4"><path class="cls-2" d="M93.07,24.07h20.56c3.67,0,6.75,3.46,7.22,8.08l10,50.6c.55,5.52-8.71,1.42-13.08,1.42H89.9c-4.29,0-14.53,4.49-14.12-1l10-50.8C86.19,27.68,89.32,24.07,93.07,24.07Z"/></clipPath><clipPath id="clip-path-5"><circle class="cls-3" cx="51.81" cy="215.51" r="26.08"/></clipPath><clipPath id="clip-path-6"><path class="cls-4" d="M51.81,249.24c-5.84-2.82-10.74-5.39-15.71-9.48-3.71-3.06-5.69-7.88-7.19-12.33-1.09-3.24-2.85-7-3.16-10.36-.22-2.42,1.52-2,3-1.08a9,9,0,0,1,3.63,4.9c0-4.15-.31-8.32-.28-12.49,0-3,.14-6.16,1.36-8.93a11.92,11.92,0,0,1,4.29-5.11,1.1,1.1,0,0,1,1.52.33,1.14,1.14,0,0,1,.15.36,23.52,23.52,0,0,1,.52,7.29l1.52-6.69a7.11,7.11,0,0,1,2-4,1.23,1.23,0,0,1,1.72.24,1,1,0,0,1,.11.17,35.7,35.7,0,0,1,3.74,12,50.61,50.61,0,0,0,.83,6,22.93,22.93,0,0,0,1.39,3.76,53.59,53.59,0,0,0,10.13,15c4.52,4.72,10.1,10,12.15,16.26Z"/></clipPath><clipPath id="clip-path-7"><path class="cls-3" d="M51.81,249.24c-5.84-2.82-10.74-5.39-15.71-9.48-3.71-3.06-5.69-7.88-7.19-12.33-1.09-3.24-2.85-7-3.16-10.36-.22-2.42,1.52-2,3-1.08a9,9,0,0,1,3.63,4.9c0-4.15-.31-8.32-.28-12.49,0-3,.14-6.16,1.36-8.93a11.92,11.92,0,0,1,4.29-5.11,1.1,1.1,0,0,1,1.52.33,1.14,1.14,0,0,1,.15.36,23.52,23.52,0,0,1,.52,7.29l1.52-6.69a7.11,7.11,0,0,1,2-4,1.23,1.23,0,0,1,1.72.24,1,1,0,0,1,.11.17,35.7,35.7,0,0,1,3.74,12,50.61,50.61,0,0,0,.83,6,22.93,22.93,0,0,0,1.39,3.76,53.59,53.59,0,0,0,10.13,15c4.52,4.72,10.1,10,12.15,16.26Z"/></clipPath><clipPath id="clip-path-8"><path class="cls-5" d="M51.81,249.24c-5.84-2.82-10.74-5.39-15.71-9.48-3.71-3.06-5.69-7.88-7.19-12.33-1.09-3.24-2.85-7-3.16-10.36-.22-2.42,1.52-2,3-1.08a9,9,0,0,1,3.63,4.9c0-4.15-.31-8.32-.28-12.49,0-3,.14-6.16,1.36-8.93a11.92,11.92,0,0,1,4.29-5.11,1.1,1.1,0,0,1,1.52.33,1.14,1.14,0,0,1,.15.36,23.52,23.52,0,0,1,.52,7.29l1.52-6.69a7.11,7.11,0,0,1,2-4,1.23,1.23,0,0,1,1.72.24,1,1,0,0,1,.11.17,35.7,35.7,0,0,1,3.74,12,50.61,50.61,0,0,0,.83,6,22.93,22.93,0,0,0,1.39,3.76,53.59,53.59,0,0,0,10.13,15c4.52,4.72,10.1,10,12.15,16.26Z"/></clipPath></defs><g id="Layer_2" data-name="Layer 2"><g id="Layer_2-2" data-name="Layer 2"><path class="cls-6" d="M232.75,165.37a210.75,210.75,0,0,1-32.94,15.72c-1.63.64-3.27,1.26-4.9,1.86q-.41.17-.81.3c-1.7.64-3.4,1.26-5.1,1.88l-.35.12-2.17.78-1.14.4-2.28.81h0l-3.25,1.15h-.1l-1.12.4-.74.26h0l-2.19.78-1.33.48-1.76.63-3.8,1.37-3.55,1.31-1.33.49a92.37,92.37,0,0,0-9,3.93l-1.38.69c-3.39,1.72-6.81,3.63-10.24,5.68-.11.07-.23.13-.34.21-3.2,1.91-6.41,3.94-9.61,6l-.27.17c-3.12,2-6.22,4.14-9.3,6.24l-2,1.34L114,223.68c-3.11,2.13-6.17,4.21-9.16,6.18l-2.74,1.79c-1.08.7-2.15,1.38-3.2,2-2.47,1.55-4.89,3-7.23,4.29-1.47.81-2.92,1.57-4.33,2.27C70.4,248.7,30.62,252,14.05,253a8.45,8.45,0,0,1-8.85-6.92C-15.49,131,37.88,32.47,53.68,6.48A8.48,8.48,0,0,1,64.49,3.2c7.44,3.43,21.19,8.63,41.15,11.68,29.29,4.47,36.31,16.28,37.2,18,.11.22.24.44.37.65,14.64,23.91,27.23,39.9,48.31,51.9,17,9.66,37.18,52.48,44.59,69.21A8.46,8.46,0,0,1,232.75,165.37Z"/><g class="cls-7"><polygon class="cls-8" points="33.46 239.31 30.89 254.57 52.56 253.02 52.56 239.57 33.46 239.31"/></g><path class="cls-5" d="M232.75,165.37a210.75,210.75,0,0,1-32.94,15.72c-1.63.64-3.27,1.26-4.9,1.86q-.41.17-.81.3c-1.7.64-3.4,1.26-5.1,1.88l-.35.12-2.17.78-1.14.4-2.28.81h0l-3.25,1.15h-.1l-1.12.4-.74.26h0l-2.19.78-1.33.48-1.76.63-3.8,1.37-3.55,1.31-1.33.49a92.37,92.37,0,0,0-9,3.93l-1.38.69c-3.39,1.72-6.81,3.63-10.24,5.68-.11.07-.23.13-.34.21-3.2,1.91-6.41,3.94-9.61,6l-.27.17c-3.12,2-6.22,4.14-9.3,6.24l-2,1.34L114,223.68c-3.11,2.13-6.17,4.21-9.16,6.18l-2.74,1.79c-1.08.7-2.15,1.38-3.2,2-2.47,1.55-4.89,3-7.23,4.29-1.47.81-2.92,1.57-4.33,2.27C70.4,248.7,30.62,252,14.05,253a8.45,8.45,0,0,1-8.85-6.92C-15.49,131,37.88,32.47,53.68,6.48A8.48,8.48,0,0,1,64.49,3.2c7.44,3.43,21.19,8.63,41.15,11.68,29.29,4.47,36.31,16.28,37.2,18,.11.22.24.44.37.65,14.64,23.91,27.23,39.9,48.31,51.9,17,9.66,37.18,52.48,44.59,69.21A8.46,8.46,0,0,1,232.75,165.37Z"/><path class="cls-2" d="M194.49,148.84q0,3-.19,5.85c-.12,2-.31,3.93-.57,5.87-.09.72-.19,1.44-.31,2.15a.38.38,0,0,1,0,.15,3,3,0,0,1-.08.52c-.18,1.14-.39,2.27-.62,3.39a86.13,86.13,0,0,1-2.29,8.94c-.39,1.29-.82,2.56-1.28,3.81-.23.63-.46,1.25-.7,1.86q-.91,2.35-2,4.65l-1.14.4-2.28.81h0l-3.25,1.15h-.1l-1.12.4-.74.26h0l-2.19.78-1.33.48-1.76.63-3.8,1.37-3.55,1.31-1.33.49a92.37,92.37,0,0,0-9,3.93l-1.38.69c-3.39,1.72-6.81,3.63-10.24,5.68-.11.07-.23.13-.34.21-3.2,1.91-6.41,3.94-9.61,6l-.27.17c-3.12,2-6.22,4.14-9.3,6.24l-2,1.34L114,223.68c-3.11,2.13-6.17,4.21-9.16,6.18l-2.74,1.79c-1.08.7-2.15,1.38-3.2,2-2.47,1.55-4.89,3-7.23,4.29a90,90,0,0,1-41.26-17q-2.83-2.13-5.51-4.49l-.24-.21c-1.46-1.29-2.89-2.64-4.27-4-.12-.11-.23-.23-.34-.35h0A90.09,90.09,0,1,1,194.44,148.8Z"/><path class="cls-9" d="M189.49,148.84a84.62,84.62,0,0,1-4.26,26.6c-.27.83-.55,1.65-.85,2.46a1,1,0,0,1-.11.31h0c-.15.41-.31.8-.47,1.2-.27.7-.54,1.39-.84,2.08h0q-1.44,3.48-3.2,6.81l-.06.11-1.12.4-.74.26h0l-2.19.78-1.33.48-1.76.63-3.8,1.37-3.55,1.31-1.33.49a92.37,92.37,0,0,0-9,3.93l-1.38.69c-3.39,1.72-6.81,3.63-10.24,5.68-.11.07-.23.13-.34.21-3.2,1.91-6.41,3.94-9.61,6l-.27.17c-3.12,2-6.22,4.14-9.3,6.24l-2,1.34L114,223.7c-3.11,2.13-6.17,4.21-9.16,6.18l-2.74,1.79c-1.08.7-2.15,1.38-3.2,2a83.84,83.84,0,0,1-24.48-5.26h-.12c-1.43-.54-2.83-1.11-4.22-1.74A84.64,84.64,0,0,1,46.4,211l-1.1-1-1-1q-2.19-2.19-4.23-4.54l-.1-.12a83.91,83.91,0,0,1-5.27-6.76c-.76-1.08-1.5-2.18-2.2-3.3A85,85,0,0,1,57.07,78.16h0l.11-.07A83.56,83.56,0,0,1,70.6,70.75l.24-.1a84.08,84.08,0,0,1,16.59-5.21l1-.2a85.18,85.18,0,0,1,15.93-1.5,83.36,83.36,0,0,1,12.33.9,4.62,4.62,0,0,1,.65.09A85.23,85.23,0,0,1,189.49,148.84Z"/><path class="cls-10" d="M86.22,64.51s-6,32.22,7.33,28.82S86.22,64.51,86.22,64.51Z"/><path class="cls-10" d="M102.45,63.82s-13.23,30,.51,29.75S102.45,63.82,102.45,63.82Z"/><path class="cls-10" d="M115.66,63.81s-15.9,28.65-2.19,29.66S115.66,63.81,115.66,63.81Z"/><path class="cls-10" d="M130.61,67.9s-21.42,24.81-8.2,28.6S130.61,67.9,130.61,67.9Z"/><path class="cls-10" d="M144.3,74.31s-25.11,21.08-12.66,26.93S144.3,74.31,144.3,74.31Z"/><path class="cls-10" d="M157.26,84.15S128,98.89,138.76,107.48,157.26,84.15,157.26,84.15Z"/><path class="cls-10" d="M167.5,92.49S137,104.52,147,114,167.5,92.49,167.5,92.49Z"/><path class="cls-10" d="M176.42,105.2s-32.3,5.56-24.5,16.87S176.42,105.2,176.42,105.2Z"/><path class="cls-10" d="M183.86,120.29s-32.75-.65-27.23,12S183.86,120.29,183.86,120.29Z"/><path class="cls-10" d="M187.19,136.19s-31.74-8.15-29.26,5.38S187.19,136.19,187.19,136.19Z"/><path class="cls-10" d="M189.41,149.22s-30.87-11-29.63,2.7S189.41,149.22,189.41,149.22Z"/><path class="cls-10" d="M187.77,164.66s-28-17.09-29.56-3.43S187.77,164.66,187.77,164.66Z"/><path class="cls-10" d="M48.44,212.18S78,198,67.36,189.22,48.44,212.18,48.44,212.18Z"/><path class="cls-10" d="M38.3,199.48s32-7,23.69-18S38.3,199.48,38.3,199.48Z"/><path class="cls-10" d="M30.45,188.86S63,184.75,55.67,173.1,30.45,188.86,30.45,188.86Z"/><path class="cls-10" d="M25,174.34S57.61,177,52.86,164.07,25,174.34,25,174.34Z"/><path class="cls-10" d="M22.07,159.46s31.83,7.8,29.2-5.7S22.07,159.46,22.07,159.46Z"/><path class="cls-10" d="M22.31,143.25S51.49,158.16,52,144.41,22.31,143.25,22.31,143.25Z"/><path class="cls-10" d="M23,130.06s27.71,17.52,29.49,3.86S23,130.06,23,130.06Z"/><path class="cls-10" d="M28,115.35s23.56,22.79,28.09,9.81S28,115.35,28,115.35Z"/><path class="cls-10" d="M35.75,100.43s18.89,26.82,25.74,14.92S35.75,100.43,35.75,100.43Z"/><path class="cls-10" d="M46.63,88.35s12.16,30.46,21.61,20.44S46.63,88.35,46.63,88.35Z"/><path class="cls-10" d="M55.79,78.86s9.35,31.41,19.67,22.31S55.79,78.86,55.79,78.86Z"/><path class="cls-10" d="M69.24,71.07S72,103.73,83.94,96.93,69.24,71.07,69.24,71.07Z"/><path class="cls-10" d="M186.38,177.92s-23.4-23-28-10S186.38,177.92,186.38,177.92Z"/><path class="cls-10" d="M179.29,187.55l-.74.27h0l-2.17.82-1.33.5-1.74.67c-1.95-.2-4.06-.48-6.15-.9a42.5,42.5,0,0,1-5.42-1.35h0a22.94,22.94,0,0,1-3.46-1.48,8.33,8.33,0,0,1-3.65-3.35v-.1a5.48,5.48,0,0,1,.21-4.85,7.88,7.88,0,0,1,.63-1.14,5,5,0,0,1,3.82-2.33,4,4,0,0,1,.69,0,8.05,8.05,0,0,1,2,.28,13.37,13.37,0,0,1,2.32.84,16.88,16.88,0,0,1,1.64.84c.57.32,1.16.67,1.74,1.05l.07.05c1.09.71,2.17,1.52,3.24,2.37h0c1.51,1.21,3,2.48,4.28,3.73h0c.94.87,1.81,1.74,2.59,2.53l.26.27.07.06Z"/><path class="cls-10" d="M166,192.61l-1.32.52a93,93,0,0,0-8.93,4.08,31.87,31.87,0,0,1-3-1.67c-.5-.32-1-.65-1.43-1a10.93,10.93,0,0,1-3.22-3.48,1.34,1.34,0,0,1-.12-.24,5.11,5.11,0,0,1-.52-2,5.67,5.67,0,0,1,1.06-3.31,3.52,3.52,0,0,1,.29-.42c1.68-2.25,3.66-2.84,5.76-2.36h.09a12,12,0,0,1,4.34,2.31,27.61,27.61,0,0,1,2.77,2.52h0A50.89,50.89,0,0,1,166,192.61Z"/><path class="cls-10" d="M154.36,197.93c-3.36,1.78-6.74,3.75-10.14,5.85-.22-.16-.43-.35-.64-.53-.43-.36-.84-.73-1.21-1.1a12,12,0,0,1-2.91-4.07,5.65,5.65,0,0,1-.36-1.47A5.43,5.43,0,0,1,141,192a5.3,5.3,0,0,1,6.79-1.06l.23.13a14.44,14.44,0,0,1,3.58,3.12c.37.43.72.87,1.08,1.34A23.63,23.63,0,0,1,154.36,197.93Z"/><path class="cls-10" d="M143.89,204c-3.17,2-6.34,4.05-9.51,6.17l-.48-.57c-.49-.59-1-1.18-1.38-1.77a16,16,0,0,1-2.36-4.41,8.68,8.68,0,0,1-.27-1c0-.2-.07-.4-.09-.6a4.93,4.93,0,0,1,1.54-4.25,7.5,7.5,0,0,1,1.41-1c2.46-1.47,4.57-1.22,6.35.11a8,8,0,0,1,1,1,16.23,16.23,0,0,1,2.83,4.12c.23.47.46,1,.67,1.49Z"/><path class="cls-10" d="M134.1,210.37c-3.09,2.06-6.15,4.25-9.19,6.4a31.51,31.51,0,0,1-2-3c-.44-.69-.83-1.38-1.17-2.05a11.54,11.54,0,0,1-1.4-4.8,5.09,5.09,0,0,1,.14-1.4,5.44,5.44,0,0,1,3.28-3.72,6.26,6.26,0,0,1,3.32-.69h0a4.84,4.84,0,0,1,2.57,1l.28.22a7.27,7.27,0,0,1,.79.78,15,15,0,0,1,2.49,4.34c.26.66.5,1.36.73,2.08A2.64,2.64,0,0,1,134.1,210.37Z"/><path class="cls-10" d="M123,218.15l-7.62,5.44a46.16,46.16,0,0,1-4.75-9.92,13.59,13.59,0,0,1-.69-5c.2-2.43,1.5-4.28,4.49-5a5.36,5.36,0,0,1,6,1.9,7.49,7.49,0,0,1,.73,1.18,16.33,16.33,0,0,1,1.42,4.79c.12.74.22,1.5.28,2.28C123,215.23,123,216.71,123,218.15Z"/><path class="cls-10" d="M109.76,213.72c-.15,5.42-2,12-3.43,16.21l-2.71,1.84c-1.77-3.7-5-11-5.85-17.15h0c-.07-.42-.12-.82-.15-1.23a13,13,0,0,1,.32-5,5.88,5.88,0,0,1,.83-1.73,5.15,5.15,0,0,1,3.7-2.12c.24,0,.5-.06.77-.07a5.32,5.32,0,0,1,5.37,2.68,7.49,7.49,0,0,1,.66,1.6A15.75,15.75,0,0,1,109.76,213.72Z"/><path class="cls-10" d="M88.75,231.67s18.84-26.83,5.3-29.28S88.75,231.67,88.75,231.67Z"/><path class="cls-10" d="M75.79,229.14s21.19-25,7.93-28.66S75.79,229.14,75.79,229.14Z"/><path class="cls-10" d="M61.92,222.16S87.78,202,75.55,195.72,61.92,222.16,61.92,222.16Z"/><circle class="cls-2" cx="105.4" cy="149.7" r="64.18"/><circle class="cls-11" cx="105.4" cy="149.7" r="59.18"/><path class="cls-10" d="M81.81,96.49s-12.16,23,14.68,33.42C96.49,129.91,107.6,106.54,81.81,96.49Z"/><path class="cls-10" d="M129.59,202.26s12.17-23-14.68-33.42C114.91,168.84,103.78,192.21,129.59,202.26Z"/><path class="cls-10" d="M111.94,128.3s25.77-3.38,18.75-31.34C130.69,97,105.19,101.45,111.94,128.3Z"/><path class="cls-10" d="M82.38,203.25s25.76-3.38,18.74-31.33C101.12,171.94,75.64,176.41,82.38,203.25Z"/><path class="cls-10" d="M51.66,174.28s23,12.17,33.41-14.67C85.07,159.61,61.71,148.49,51.66,174.28Z"/><path class="cls-10" d="M126.34,142.34s23,12.17,33.42-14.67C159.76,127.67,136.39,116.55,126.34,142.34Z"/><path class="cls-10" d="M127.13,155s5.53,25.38,32.79,16C159.94,171.06,153.33,146,127.13,155Z"/><path class="cls-10" d="M104.58,90.61s-20.08,16.48.64,36.49C105.22,127.1,124.49,109.83,104.58,90.61Z"/><path class="cls-10" d="M163.47,148S147,127.92,127,148.63C127,148.63,144.25,167.92,163.47,148Z"/><path class="cls-10" d="M83.31,150.25s-16.48-20.08-36.49.64C46.82,150.89,64.09,170.17,83.31,150.25Z"/><path class="cls-10" d="M82.89,141.88S75,117.13,48.66,129C48.66,129,57.63,153.28,82.89,141.88Z"/><path class="cls-10" d="M88.28,135S90.82,109.1,62,109.61C62,109.61,60.6,135.44,88.28,135Z"/><path class="cls-10" d="M148.46,188.79s2.55-25.86-26.25-25.36C122.21,163.43,120.79,189.27,148.46,188.79Z"/><path class="cls-10" d="M91.42,166.82s-25.86-2.55-25.35,26.26C66.07,193.08,91.9,194.5,91.42,166.82Z"/><path class="cls-10" d="M147.11,109.27s-25.82-2.55-25.32,26.27C121.79,135.54,147.59,137,147.11,109.27Z"/><path class="cls-10" d="M106,172.71s-20.09,16.49.63,36.49C106.65,209.2,125.93,191.94,106,172.71Z"/><circle class="cls-2" cx="104.41" cy="148.85" r="31"/><circle class="cls-2" cx="103.62" cy="4.81" r="4.32"/><path class="cls-12" d="M103.35,4.81a13.08,13.08,0,1,1-6.63,1.8A13.09,13.09,0,0,1,103.35,4.81Z"/><g class="cls-13"><path class="cls-2" d="M92.88,6.3s9.69,6.12,22.42,0"/><path class="cls-14" d="M92.88,16.51s.94-5.74,6.28-8"/><path class="cls-14" d="M113.21,16.51a10.13,10.13,0,0,0-6-7.73"/></g><path class="cls-14" d="M103.35,4.81a13.08,13.08,0,1,1-6.63,1.8A13.09,13.09,0,0,1,103.35,4.81Z"/><circle class="cls-2" cx="167.84" cy="117.41" r="2.23"/><circle class="cls-2" cx="170.57" cy="121.87" r="2.23"/><circle class="cls-2" cx="171.93" cy="126.32" r="2.23"/><circle class="cls-2" cx="172.3" cy="131.64" r="2.23"/><circle class="cls-2" cx="171.4" cy="136.24" r="2.23"/><circle class="cls-2" cx="170.57" cy="140.83" r="2.23"/><circle class="cls-2" cx="169.4" cy="145.52" r="2.23"/><circle class="cls-2" cx="168.34" cy="150.09" r="2.23"/><circle class="cls-2" cx="167.17" cy="155.19" r="2.23"/><circle class="cls-2" cx="167.17" cy="160.08" r="2.23"/><circle class="cls-2" cx="167.84" cy="164.97" r="2.23"/><circle class="cls-2" cx="169.4" cy="169.28" r="2.23"/><circle class="cls-2" cx="171.12" cy="173.39" r="2.23"/><circle class="cls-2" cx="172.8" cy="177.4" r="2.23"/><circle class="cls-2" cx="174.43" cy="181.3" r="2.23"/><circle class="cls-2" cx="176.68" cy="185.57" r="2.23"/><path class="cls-2" d="M179.8,188.39h-.1l-1.12.4-.74.26h0l-2.19.78v-.15a2.27,2.27,0,0,1,.38-1.56,2.5,2.5,0,0,1,.34-.39,2.32,2.32,0,0,1,.63-.4l.19-.07.2,0a2.18,2.18,0,0,1,2.4,1.07A.21.21,0,0,1,179.8,188.39Z"/><circle class="cls-2" cx="183.45" cy="133.09" r="2.23"/><circle class="cls-2" cx="182.8" cy="138.47" r="2.23"/><circle class="cls-2" cx="181.86" cy="143.85" r="2.23"/><circle class="cls-2" cx="179" cy="147.72" r="2.23"/><circle class="cls-2" cx="176.75" cy="151.74" r="2.23"/><circle class="cls-2" cx="175.98" cy="156.84" r="2.23"/><circle class="cls-2" cx="175.41" cy="161.55" r="2.23"/><circle class="cls-2" cx="175.41" cy="166.3" r="2.23"/><circle class="cls-2" cx="176.31" cy="171.22" r="2.23"/><circle class="cls-2" cx="177.67" cy="175.81" r="2.23"/><circle class="cls-2" cx="207.32" cy="148.84" r="2.23"/><circle class="cls-2" cx="205.45" cy="152.96" r="2.23"/><circle class="cls-2" cx="202.98" cy="156.84" r="2.23"/><circle class="cls-2" cx="199.92" cy="160.08" r="2.23"/><circle class="cls-2" cx="195.5" cy="161.91" r="2.23"/><circle class="cls-2" cx="191.62" cy="164.82" r="2.23"/><circle class="cls-2" cx="188.29" cy="168.08" r="2.23"/><circle class="cls-2" cx="185.68" cy="171.51" r="2.23"/><circle class="cls-2" cx="184.12" cy="175.81" r="2.23"/><path class="cls-15" d="M76.32,135.64a20.89,20.89,0,0,1,7.14-4c2.65-.7,5.77-.3,7.68,1.68,2.3,2.39,2.19,6.15,1.94,9.46l-.82,10.74a98.11,98.11,0,0,1-1.32,11.35c-.69,3.53-2,7.3-5.14,9.1a11.12,11.12,0,0,1-3.26,1.15A25.13,25.13,0,0,1,56.3,164.56c-2.79-4.09-2.64-5.92.36-9.64A116.83,116.83,0,0,1,76.32,135.64Z"/><path class="cls-15" d="M132.3,135.64a20.85,20.85,0,0,0-7.13-4c-2.66-.7-5.77-.3-7.68,1.68-2.3,2.39-2.2,6.15-1.94,9.46l.82,10.74a98.11,98.11,0,0,0,1.32,11.35c.69,3.53,2,7.3,5.14,9.1a11.12,11.12,0,0,0,3.26,1.15,25.48,25.48,0,0,0,17.72-2.65c3.4-1.91,19.61,12.76,21.81,9.54,2.78-4.1-10.66-23.33-13.65-27A117.13,117.13,0,0,0,132.3,135.64Z"/><g class="cls-16"><circle class="cls-2" cx="121.82" cy="159.39" r="2.55"/></g><path class="cls-8" d="M138,161.89q-7.68,22.32-17.4,43.88a66.71,66.71,0,0,1-16.72-9.71,67,67,0,0,1-15.11,8.48Q79,183,71.36,160.65c4.23-.58,8.69-1.26,12-3.93,3.12-2.5,4.8-6.44,5.37-10.38.76-5.31-.25-16.27-.41-21.56,5.93.89,11.66,6.35,17.21,3.65,0,.68.07,1.36.11,2,5,1.89,9.56-7.84,14.8-8.63-.16,5.3-.64,20.42.13,25.73.57,3.95,2.25,7.88,5.36,10.38C129.27,160.62,133.74,161.3,138,161.89Z"/><circle class="cls-2" cx="87.85" cy="155.67" r="2.23"/><circle class="cls-2" cx="91.54" cy="158.19" r="2.23"/><circle class="cls-2" cx="96.1" cy="160.42" r="2.23"/><circle class="cls-2" cx="101.25" cy="161.17" r="2.23"/><circle class="cls-2" cx="106.34" cy="161.32" r="2.23"/><circle class="cls-2" cx="110.8" cy="159.09" r="2.23"/><circle class="cls-2" cx="115.26" cy="157.9" r="2.23"/><circle class="cls-2" cx="118.94" cy="154.76" r="2.23"/><path class="cls-2" d="M121.06,149.89A24.71,24.71,0,0,1,104,160c-5.77.57-12.63-2.31-17.72-6.53l1-2.42c5.1,4.22,10.91,6.48,16.68,5.91a22.85,22.85,0,0,0,16.61-9.36Z"/><rect class="cls-2" x="95.59" y="11.95" width="7.4" height="10.72" rx="3.7"/><rect class="cls-2" x="87.36" y="12.47" width="7.4" height="10.72" rx="3.7"/><rect class="cls-2" x="103.33" y="11.95" width="7.4" height="10.72" rx="3.7"/><rect class="cls-2" x="111.29" y="12.47" width="7.4" height="10.72" rx="3.7"/><path class="cls-2" d="M93.29,20.13h19.36c3.44,0,6.35,3.53,6.78,8.24l3.91,42.42c.52,5.63-2.67,10.62-6.79,10.62H90.31c-4,0-7.2-4.8-6.81-10.34l3-42.42C86.81,23.82,89.76,20.13,93.29,20.13Z"/><path class="cls-12" d="M93.07,24.07h20.56c3.67,0,6.75,3.46,7.22,8.08l10,50.6c.55,5.52-8.71,1.42-13.08,1.42H89.9c-4.29,0-14.53,4.49-14.12-1l10-50.8C86.19,27.68,89.32,24.07,93.07,24.07Z"/><g class="cls-17"><polyline class="cls-2" points="82.08 74.77 91.88 24.2 113.63 24.07 122.72 74.77"/><path class="cls-2" d="M103.35,27.06s29.24,42.56.49,42.56S103.35,27.06,103.35,27.06Z"/></g><path class="cls-14" d="M93.07,24.07h20.56c3.67,0,6.75,3.46,7.22,8.08l10,50.6c.55,5.52-8.71,1.42-13.08,1.42H89.9c-4.29,0-14.53,4.49-14.12-1l10-50.8C86.19,27.68,89.32,24.07,93.07,24.07Z"/><path class="cls-2" d="M111,56.34l-2.11-1.17s3.22-10.28,5.83-14.8c2.12-3.68,8.84-2,6.63,4.84"/><path class="cls-2" d="M112.71,57.7l-1.86-1.54s5.07-9.51,8.46-13.46c2.78-3.23,9.06-.31,5.63,6"/><path class="cls-2" d="M123.48,56.06l-8.82,4.31-2-2.67s8.42-12.18,14.8-11.09,7,9.75,1.3,11.52c-3.16,1-6.68-2.78-6.28-5,.57-3.23,6.05-3.8,4.9-.39"/><circle class="cls-18" cx="107.84" cy="43.56" r="2.23"/><circle class="cls-18" cx="110.73" cy="47.56" r="2.23"/><circle class="cls-18" cx="112.96" cy="51.65" r="2.23"/><circle class="cls-18" cx="115.54" cy="56.32" r="2.23"/><circle class="cls-18" cx="117.27" cy="60.98" r="2.23"/><circle class="cls-18" cx="117.71" cy="66.2" r="2.23"/><path class="cls-2" d="M95.18,56.34l2.11-1.17s-3.22-10.28-5.83-14.8c-2.12-3.68-8.84-2-6.63,4.84"/><path class="cls-2" d="M93.44,57.7l1.85-1.54s-5.07-9.51-8.46-13.46c-2.77-3.23-9.06-.31-5.62,6"/><path class="cls-2" d="M82.66,56.06l8.82,4.31,2-2.67S85,45.52,78.63,46.61s-7,9.75-1.3,11.52c3.16,1,6.68-2.78,6.28-5-.57-3.23-6-3.8-4.9-.39"/><circle class="cls-18" cx="90.65" cy="66.2" r="2.23"/><circle class="cls-18" cx="91.06" cy="61.43" r="2.23"/><circle class="cls-18" cx="92.68" cy="56.66" r="2.23"/><circle class="cls-18" cx="94.76" cy="51.65" r="2.23"/><circle class="cls-18" cx="97.15" cy="47.56" r="2.23"/><circle class="cls-18" cx="99.83" cy="43.56" r="2.23"/><path class="cls-2" d="M103.84,40.3s-28.76,34.47,0,34.47S103.84,40.3,103.84,40.3Z"/><path class="cls-2" d="M103.84,46.94s-18.68,27.83,0,27.83S103.84,46.94,103.84,46.94Z"/><path class="cls-2" d="M103.84,56.13s-7.06,18.64,0,18.64S103.84,56.13,103.84,56.13Z"/><path class="cls-2" d="M91.25,20.13l-.52-4.34"/><path class="cls-2" d="M99.16,20.13l.26-4.85"/><path class="cls-2" d="M107.08,19.87l-.26-4.59"/><path class="cls-2" d="M114.48,20.13l.51-4.6"/><path class="cls-2" d="M103.84,34.09s-4.16,9.47,0,9.47S103.84,34.09,103.84,34.09Z"/><path class="cls-19" d="M40.8,178.77a7.67,7.67,0,0,0-1.6,2.92,8.14,8.14,0,0,0,.32,3.7A159.74,159.74,0,0,0,57,228.16,218.94,218.94,0,0,0,86.3,197.24a5.41,5.41,0,0,0,1.32-2.5,5.7,5.7,0,0,0-.51-2.63q-3.66-9.93-7.44-19.8c-1.86-4.86-2.72-13.37-9.15-12C60,162.61,47.44,170.31,40.8,178.77Z"/><path class="cls-15" d="M44.05,158a65,65,0,0,1,4-14.14A60.5,60.5,0,0,1,54,157"/><ellipse class="cls-15" cx="49.63" cy="169.43" rx="17.22" ry="15.45"/><path class="cls-8" d="M130.35,103.6a5,5,0,0,1,8.8,2.74c.4,3.78-2.08,8.08-3.08,10.82-.66,2.09-1.91,4.79-1.62,6.94.4,3,.51,4.85-2.45,5.25a8.06,8.06,0,0,1-3.82-.8"/><path class="cls-8" d="M76,103.6a5,5,0,0,0-8.8,2.74c-.4,3.78,2.08,8.08,3.08,10.82.66,2.09,1.91,4.79,1.62,6.94-.4,3-.51,4.85,2.45,5.25a8.06,8.06,0,0,0,3.82-.8"/><path class="cls-20" d="M139.25,161.48a12,12,0,0,0-4.08.48,15.49,15.49,0,0,0-3.7,2.08l-13.37,9.33c-19.82,13.81-39.94,27.91-54.88,46.89C61.08,223,59,226,58.61,229.39s1.6,7.36,5,8c1.14.19,2.26,4.16,6,8.43,16.61-3.1,21.66-6.13,30.13-11.25,7-4.21,36.15-25.61,54.88-35.09,5.32-3.51,17-8,21-9.65,5.94-2.25-11.44-14.81-13.43-17.09A31.65,31.65,0,0,0,139.25,161.48Z"/><path class="cls-5" d="M139.25,161.48a12,12,0,0,0-4.08.48,15.49,15.49,0,0,0-3.7,2.08l-13.37,9.33c-19.82,13.81-39.94,27.91-54.88,46.89C61.08,223,59,226,58.61,229.39s1.6,7.36,5,8c1.14.19,4.93,8.71,6,8.43,8.51-1.91,20.2-5.21,28.67-10.33,7-4.21,40.75-28.54,62.94-39.45,11.3-5.1,10.41-4.59,14.39-6.21,5.94-2.25-11.44-14.81-13.43-17.09A31.65,31.65,0,0,0,139.25,161.48Z"/><path class="cls-21" d="M66.85,229.14s59.14-55.7,81.67-65.74"/><path class="cls-21" d="M68.54,238.67s67.77-59.35,90.29-69.39"/><path class="cls-21" d="M74.8,244.43s65.57-56.19,88.1-66.23"/><path class="cls-21" d="M97.28,236.08s49.28-42,71.8-52"/><circle class="cls-22" cx="51.81" cy="215.51" r="26.08"/><g class="cls-23"><path class="cls-2" d="M74.51,204.21c2,.33,4.52,1.48,4.12,3.46-14.52-4.11-29.93-2.22-44.27,1.69-1.33.37-8.95,3.62-9.88,2.89-2.05-1.59,2.72-3.9,3.54-4.22a84.15,84.15,0,0,1,21.83-4.67A95.19,95.19,0,0,1,74.51,204.21Z"/><path class="cls-2" d="M75,210.3c2,.33,4.52,1.49,4.12,3.46-14.52-4.11-29.92-2.22-44.26,1.7-1.34.36-8.95,3.61-9.89,2.88-2-1.59,2.72-3.9,3.54-4.22a84.22,84.22,0,0,1,21.84-4.67A95.09,95.09,0,0,1,75,210.3Z"/></g><circle class="cls-5" cx="51.81" cy="215.51" r="26.08"/><path class="cls-24" d="M34.14,193.51a62.19,62.19,0,0,0-9.85-26.36c5.28-.11,10,3.66,12.57,8.29s3.29,10,3.89,15.24"/><path class="cls-24" d="M41.27,189.89a52.9,52.9,0,0,1-1.53-31.75,195,195,0,0,1,10.35,30.39"/><path class="cls-24" d="M50.92,188.64c-3.06-6-2.44-13.24-.63-19.73A18.83,18.83,0,0,1,53,162.66a8,8,0,0,1,5.71-3.39A5.14,5.14,0,0,1,64,162.78a4.59,4.59,0,0,0-4.71,2.36A12.45,12.45,0,0,0,58,170.56a90.59,90.59,0,0,0,.36,17.58"/><path class="cls-24" d="M59.05,188.39a37.21,37.21,0,0,1,.74-12.75c1.14-4.12,3.65-8,7.43-10S76.12,164,79.11,167c-3.38.27-5.59,3.6-7,6.67a62,62,0,0,0-5.32,19.26v-1"/><path class="cls-24" d="M31.79,173.56a49.26,49.26,0,0,1,4.78,18.91"/><path class="cls-24" d="M41.23,172A99.63,99.63,0,0,0,45,189.67"/><path class="cls-24" d="M55,189.9a30.51,30.51,0,0,1,1.44-22.47"/><path class="cls-24" d="M61.72,190.68a34.92,34.92,0,0,1,7-21.25"/><path class="cls-2" d="M34.06,191.22c1.55-1.48,3.75-2,5.85-2.47a70.82,70.82,0,0,1,18.48-1.51,15.57,15.57,0,0,1,7.43,1.92c2.18,1.39,3.75,4,3.17,6.54.54-2.35-21.37-1.91-23.27-1.58a48.84,48.84,0,0,0-5.85,1.41c-1.58.48-4.07,2.11-5.65,2.13-1.75,0-1.23.38-1.69-1.47A5.63,5.63,0,0,1,34.06,191.22Z"/><path class="cls-2" d="M56.73,175.67c3.17-.24,6.43-.42,9.49.48a6.39,6.39,0,0,1,3.29,1.95,3.14,3.14,0,0,1,.36,3.61c0-1-1-1.76-1.89-2.18-2.85-1.28-6.1-1.25-9.22-1.12A198.26,198.26,0,0,0,37,180.49c-2.09.32-4.71,1.26-4.7,3.37,0-.35-1.35-1.25-1.41-2-.12-1.56.28-1.29,1.3-2,1.93-1.34,5.79-1.61,8.07-2.07A132.23,132.23,0,0,1,56.73,175.67Z"/><path class="cls-25" d="M48.34,147.79l-.25,5.62"/><path class="cls-24" d="M163.35,150.49c1.41-5.74,3.53-11.34,4-17.23a30.87,30.87,0,0,0-4.81-18.84c4.5,2.22,7.25,7.1,8.06,12s0,10-1.13,14.93-2.41,9.79-2.55,14.81c-.24,8.72,3.09,17.09,6.36,25.17l3.25,8c-.79.83-2.13-.08-2.85-1C165,177.71,160,164.17,163.35,150.49Z"/><path class="cls-24" d="M169.19,161.43c.57-12.48,12.95-22.28,12.84-34.77a27.05,27.05,0,0,1-1.19,16.51c-1.24,3.05-3,5.84-4.3,8.86a29.19,29.19,0,0,0,0,22.44c1.06,2.51,2.65,5.3,1.82,8.09-3.44-.63-4.31-4.36-5.62-7.13C170.68,171,169,166.37,169.19,161.43Z"/><path class="cls-24" d="M188.91,156.75c4.1-2.14,9.06-2.55,12.73-5.37a11.9,11.9,0,0,0,4.44-10.85,13,13,0,0,1,.11,10.88c-1.68,3.67-5,6.34-8.33,8.57s-7,4.21-9.76,7.11a15.32,15.32,0,0,0-3.31,5.09c-.57,1.54,0,4.72-.63,5.83-.42.71-3.33,2.09-4.18,1.46s-.4-2.45-.35-3.3C180.07,168.57,181.48,160.63,188.91,156.75Z"/><circle class="cls-2" cx="75.78" cy="141.97" r="14.48"/><circle class="cls-2" cx="75.78" cy="142.14" r="9.91"/><circle class="cls-26" cx="75.78" cy="141.97" r="6.26"/><circle class="cls-27" cx="103.62" cy="43.56" r="3.05"/><circle class="cls-2" cx="132.43" cy="140.53" r="14.48"/><circle class="cls-2" cx="132.43" cy="140.71" r="9.91"/><circle class="cls-26" cx="132.43" cy="140.53" r="6.26"/><path class="cls-15" d="M97.53,67.11h11.74A22.71,22.71,0,0,1,132,89.82h0v3.44a28.59,28.59,0,0,1-28.6,28.6h0a28.6,28.6,0,0,1-28.6-28.6V89.83A22.72,22.72,0,0,1,97.52,67.11Z"/><path class="cls-8" d="M200.64,171.59c-.3,2.61-.21,5.25-.49,7.86a5.78,5.78,0,0,1-.34,1.64c-1.63.64-3.27,1.26-4.9,1.86q-.41.17-.81.3a2.35,2.35,0,0,1-.79-1.82,10.45,10.45,0,0,1,.68-3.54c.06-.2.12-.39.17-.58.26-.95.55-1.88.88-2.81.8-2.3,1.83-4.63,3.72-6.16a1.11,1.11,0,0,1,.45-.25.89.89,0,0,1,.53.1,2.08,2.08,0,0,1,1,1.53A7.32,7.32,0,0,1,200.64,171.59Z"/><path class="cls-8" d="M194.91,183q-.41.17-.81.3c-1.7.64-3.4,1.26-5.1,1.88a1.46,1.46,0,0,1-.05-.2v-.2a31.78,31.78,0,0,1-.48-3.35q-.12-1.1-.15-2.19l.21.51.56-1.54.53-1.46a1.9,1.9,0,0,1,3.09-.75,6.88,6.88,0,0,1,1.06,1.4,3.71,3.71,0,0,1,.26.53,11.11,11.11,0,0,1,.93,3.76A5.21,5.21,0,0,1,194.91,183Z"/><path class="cls-8" d="M189.05,184.32a2.83,2.83,0,0,1-.14.41,2.53,2.53,0,0,1-.26.52l-2.17.78-1.14.4a3.38,3.38,0,0,1-1.7-1.63,6.23,6.23,0,0,1-.65-2.42v-.87h0a10.87,10.87,0,0,1,.2-2v-.23l.12-.52c.06-.25.14-.49.22-.73s.16-.42.25-.63a5.64,5.64,0,0,1,.6-1h0a.43.43,0,0,1,.11-.12,4.41,4.41,0,0,1,.46-.51l.27-.24a5.43,5.43,0,0,1,.88-.63c2.14-1.24,2.74,1,2.94,3.35,0,.46.06.92.08,1.36a14.76,14.76,0,0,0,.06,1.75A9.23,9.23,0,0,1,189.05,184.32Z"/><path class="cls-8" d="M97.53,72.31h11.74A22.72,22.72,0,0,1,132,95v18.64c0,15.8-11.82,24.35-28.6,28.6h0c-15.25-3.89-28.6-12.8-28.6-28.6V95A22.72,22.72,0,0,1,97.53,72.31Z"/><path class="cls-28" d="M103.41,117.59c.63-.32,1-1,1.63-1.36.43-.21.95-.21,1.32-.5a1.44,1.44,0,0,0,.34-1.61,4.09,4.09,0,0,0-1-1.4"/><path class="cls-28" d="M103.41,117.59c-.64-.32-1-1-1.64-1.36-.42-.21-.94-.21-1.32-.5a1.43,1.43,0,0,1-.33-1.61,4.09,4.09,0,0,1,1-1.4"/><path class="cls-29" d="M101.59,114.52c-1.82-.7-4-1.36-5.59-.24a3,3,0,1,0,4.69,2.46"/><polyline class="cls-30" points="113.6 125.76 110.31 127.17 103.33 128.3 93.16 126.36"/><path class="cls-31" d="M93.16,126.35c3.8-1.06,7.61-1.68,10.32-.48,0,0,3.33-2.17,10.12-.11"/><path class="cls-32" d="M97.43,127.41c-.53,1.54,3.67,3.85,5.91,3.87s6.38-2.45,5.9-4"/><path class="cls-33" d="M91.51,125.29a12.58,12.58,0,0,0,5,2c2,.42,4.87.12,6.72,1.4,0,0,1.56-1.52,6-1.4,1.38-.07,2.9-.26,6.3-2.53"/><path class="cls-4" d="M51.81,249.24c-5.84-2.82-10.74-5.39-15.71-9.48-3.71-3.06-5.69-7.88-7.19-12.33-1.09-3.24-2.85-7-3.16-10.36-.22-2.42,1.52-2,3-1.08a9,9,0,0,1,3.63,4.9c0-4.15-.31-8.32-.28-12.49,0-3,.14-6.16,1.36-8.93a11.92,11.92,0,0,1,4.29-5.11,1.1,1.1,0,0,1,1.52.33,1.14,1.14,0,0,1,.15.36,23.52,23.52,0,0,1,.52,7.29l1.52-6.69a7.11,7.11,0,0,1,2-4,1.23,1.23,0,0,1,1.72.24,1,1,0,0,1,.11.17,35.7,35.7,0,0,1,3.74,12,50.61,50.61,0,0,0,.83,6,22.93,22.93,0,0,0,1.39,3.76,53.59,53.59,0,0,0,10.13,15c4.52,4.72,10.1,10,12.15,16.26Z"/><g class="cls-34"><path class="cls-4" d="M72,190.5c3.22,0,3.23-5,0-5s-3.22,5,0,5Z"/><path class="cls-4" d="M74.84,188c3.22,0,3.22-5,0-5s-3.22,5,0,5Z"/></g><g class="cls-35"><path class="cls-5" d="M35.7,230.37l-2.59-5.25a14.24,14.24,0,0,1-.76-1.75,12.51,12.51,0,0,1-.46-2.5c-.21-1.83-.35-3.67-.43-5.5"/><path class="cls-5" d="M36.82,221.31a53.7,53.7,0,0,1-1.33-10.79c-.31-5.65-.58-11.57,1.84-16.68"/></g><g class="cls-36"><path class="cls-12" d="M40.93,217.36c.07,0,.07,0,0,0l.1,0,.16-.06.38-.14.71-.22.73-.16.39-.07h.06l.23,0a.63.63,0,0,0,.62-.62.64.64,0,0,0-.62-.63,12,12,0,0,0-3.4.91.63.63,0,0,0-.23.85.67.67,0,0,0,.86.23Z"/><path class="cls-12" d="M41.41,216.33c.45-.1.91-.18,1.36-.25l.35-.05h.05l.16,0,.7-.07-.16-1.23a9.33,9.33,0,0,0-1.63.51.66.66,0,0,0-.37.29.62.62,0,0,0-.06.48.63.63,0,0,0,.77.44,9,9,0,0,1,1.62-.51.63.63,0,0,0,.45-.69.63.63,0,0,0-.62-.54,26.56,26.56,0,0,0-3,.44.64.64,0,0,0-.44.77.65.65,0,0,0,.77.44Z"/></g><path class="cls-5" d="M51.81,249.24c-5.84-2.82-10.74-5.39-15.71-9.48-3.71-3.06-5.69-7.88-7.19-12.33-1.09-3.24-2.85-7-3.16-10.36-.22-2.42,1.52-2,3-1.08a9,9,0,0,1,3.63,4.9c0-4.15-.31-8.32-.28-12.49,0-3,.14-6.16,1.36-8.93a11.92,11.92,0,0,1,4.29-5.11,1.1,1.1,0,0,1,1.52.33,1.14,1.14,0,0,1,.15.36,23.52,23.52,0,0,1,.52,7.29l1.52-6.69a7.11,7.11,0,0,1,2-4,1.23,1.23,0,0,1,1.72.24,1,1,0,0,1,.11.17,35.7,35.7,0,0,1,3.74,12,50.61,50.61,0,0,0,.83,6,22.93,22.93,0,0,0,1.39,3.76,53.59,53.59,0,0,0,10.13,15c4.52,4.72,10.1,10,12.15,16.26Z"/><path class="cls-5" d="M40.76,218.93a52.69,52.69,0,0,1-.71-9.55l-.11-7.81"/><path class="cls-5" d="M44.87,217.91a92.76,92.76,0,0,1-.53-13.54c.12-3.23.58-7.47,1.84-10.44"/><path class="cls-8" d="M174.31,190.35l-1.76.63-3.8,1.37h-.08a6.07,6.07,0,0,1-2.25-2.33c-1.18-1.84-2.18-4.25-2.88-5.51a27.51,27.51,0,0,1-1.35-2.72h0a11.94,11.94,0,0,1-.7-2.17,10.76,10.76,0,0,1-.06-4,17.52,17.52,0,0,1,1.26-4.18,14.93,14.93,0,0,1,1-2c.52-1,1.09-2.05,1.66-3a6,6,0,0,1,1.73,4.79c-.14,1.43-.79,2.82-.63,4.25.24,2,2,3.46,3.4,4.94.18.19.36.39.53.59h0a18,18,0,0,1,4,8.21,3.53,3.53,0,0,0,.1.55A1.17,1.17,0,0,1,174.31,190.35Z"/><path class="cls-8" d="M184.37,177.13c0,.36-.07.72-.1,1.08h0l-.63,6.58a10.8,10.8,0,0,1-.11,1.13,1.69,1.69,0,0,1-.47,1.31h0l-3.25,1.15h-.1l-1.12.4-.74.26h0a8.62,8.62,0,0,1-.39-1.43v-.08l-.06-.33a9.3,9.3,0,0,1-.06-1.67l.13-.16a1.59,1.59,0,0,1-.66-.42,3,3,0,0,1-.72-1.57,4.81,4.81,0,0,0-.07-.53h0a6.74,6.74,0,0,1,0-1.49,6,6,0,0,1,.28-1.26,8.13,8.13,0,0,1,1.49-2.78,7.85,7.85,0,0,1,4.15-2.71,2.17,2.17,0,0,1,1.86.19,1.85,1.85,0,0,1,.58,1.5h0A5.69,5.69,0,0,1,184.37,177.13Z"/><path class="cls-2" d="M88,165.28c1.94,1.51,5.74,2.68,8.1,3.38a24.79,24.79,0,0,0,8,.83c5.92,0,16-4.29,20.89-11.81a4.93,4.93,0,0,0,3.08,2.38,46.22,46.22,0,0,1-8.59,7c-3.33,2-7,3.22-10.34,5.26s-6.26,5.15-6.69,9c.58-2.65-.89-5.41-3-7.18a28.46,28.46,0,0,0-7.16-3.86c-4.56-2-9.18-4.6-11.62-8.94-1.3-2.32-1.5-2.57.33-3.13C82.45,157.77,85.27,163.15,88,165.28Z"/><path class="cls-18" d="M103.62,77.58s-4.76,12.87,0,12.87S103.62,77.58,103.62,77.58Z"/><rect class="cls-18" x="72.44" y="138.9" width="6.69" height="6.69" transform="translate(122.77 -11.92) rotate(45)"/><rect class="cls-18" x="129.09" y="137.19" width="6.69" height="6.69" transform="translate(138.16 -52.48) rotate(45)"/><path class="cls-26" d="M103.76,175.79a1,1,0,0,0-1.79,0c-1.59,3.86-4.28,11.91.9,11.91S105.35,179.65,103.76,175.79Z"/><ellipse class="cls-37" cx="40.65" cy="215.51" rx="2.34" ry="3.05"/><path d="M99.46,105.6s-5.89-5.8-12.81-5.78c-5.41,0-11.14,4.61-11.14,4.61l1.62,1.06"/><path class="cls-38" d="M98.59,105.34s-11.49-9.64-21,0a16.11,16.11,0,0,0,3.87,1.73,20.69,20.69,0,0,0,11.73-.28A17.66,17.66,0,0,1,98.59,105.34Z"/><path class="cls-39" d="M85.33,101.39a2.72,2.72,0,0,0-.55,3A2.88,2.88,0,0,0,87.32,106,3.11,3.11,0,0,0,90,104.46a3.4,3.4,0,0,0,.11-3.09"/><circle class="cls-40" cx="88.97" cy="103.19" r="0.71"/><path d="M98.33,95.42l-.24,1.23a.7.7,0,0,1-1,.48c-1.93-1-6.78-3.33-10.13-3.37-4.27-.06-12.41,2.35-12.41,2.35s-.16-1.08,5.14-2.85c2.1-.7,5.51-2,7.27-1.87,2.21.15,8.93,2.51,10.93,3.23A.7.7,0,0,1,98.33,95.42Z"/><path d="M107.19,105.6s5.89-5.8,12.82-5.78c5.4,0,11.14,4.61,11.14,4.61l-1.63,1.06"/><path class="cls-38" d="M108.06,105.34s11.49-9.64,21,0a16.11,16.11,0,0,1-3.87,1.73,20.69,20.69,0,0,1-11.73-.28A17.59,17.59,0,0,0,108.06,105.34Z"/><path class="cls-39" d="M122.09,101.39a2.72,2.72,0,0,1,.55,3A2.88,2.88,0,0,1,120.1,106a3.1,3.1,0,0,1-2.65-1.55,3.34,3.34,0,0,1-.11-3.09"/><path d="M108.08,95.42l.24,1.23a.69.69,0,0,0,1,.48c1.92-1,6.78-3.33,10.13-3.37,4.27-.06,12.75,2.59,12.75,2.59S132,95,126.72,93.26c-2.09-.7-5.5-2-7.26-1.87-2.21.15-8.93,2.51-10.93,3.23A.7.7,0,0,0,108.08,95.42Z"/><circle class="cls-40" cx="121.82" cy="103.12" r="0.71"/></g></g></svg>